<svg width="404" height="139" viewBox="0 0 404 139" fill="none" xmlns="http://www.w3.org/2000/svg">
<g filter="url(#filter0_d_35_500)">
<g clip-path="url(#clip0_35_500)">
<path d="M134.235 36.8277C134.215 34.8958 134.558 32.9781 135.245 31.18C135.889 29.5169 136.844 28.0003 138.056 26.7166C139.268 25.4477 140.726 24.4562 142.336 23.807C144.054 23.1135 145.885 22.7661 147.73 22.7836C150.39 22.715 153.01 23.461 155.258 24.9269C157.411 26.3749 159.054 28.4979 159.944 30.9818L154.893 32.2839C154.49 31.3521 153.901 30.5184 153.163 29.837C152.426 29.1556 151.557 28.6419 150.614 28.3294C149.701 28.0239 148.747 27.8701 147.787 27.874C146.366 27.8433 144.969 28.248 143.773 29.0367C142.619 29.818 141.7 30.9146 141.118 32.2035C140.471 33.6452 140.151 35.2188 140.181 36.8063C140.148 38.4061 140.468 39.9927 141.118 41.4466C141.697 42.7329 142.618 43.8249 143.773 44.5973C144.974 45.3724 146.37 45.7674 147.787 45.7332C148.779 45.7387 149.765 45.5795 150.708 45.2617C151.662 44.9363 152.536 44.4005 153.269 43.6917C154.117 42.8572 154.788 41.8522 155.242 40.7393L160.209 41.9181C159.352 44.6059 157.676 46.9378 155.43 48.5678C153.158 50.1215 150.477 50.9185 147.75 50.8504C145.899 50.8724 144.06 50.5267 142.336 49.8323C140.729 49.185 139.272 48.1995 138.056 46.9388C136.841 45.6657 135.885 44.1554 135.245 42.4968C134.558 40.6914 134.215 38.7666 134.235 36.8277Z" fill="white"/>
<path d="M164.088 23.0407H169.971V50.5824H164.088V23.0407Z" fill="white"/>
<path d="M185.111 23.0407C187.688 22.9766 190.241 23.5654 192.546 24.7554C194.598 25.845 196.302 27.519 197.455 29.5779C198.672 31.7989 199.287 34.3158 199.236 36.8652C199.292 39.3903 198.684 41.8841 197.476 44.0828C196.321 46.14 194.617 47.8135 192.566 48.9053C190.262 50.0953 187.709 50.6842 185.132 50.62H174.672V23.0407H185.111ZM184.804 45.5457C187.48 45.5457 189.55 44.7723 191.015 43.2255C192.478 41.6823 193.212 39.5658 193.212 36.892C193.212 34.2182 192.478 32.0695 191.015 30.4995C189.552 28.9295 187.48 28.1579 184.804 28.1579H180.561V45.5457H184.804Z" fill="white"/>
<path d="M215.724 28.1311H214.386L206.743 50.5985H200.667L210.335 23.0407H219.894L229.526 50.5824H223.445L215.724 28.1311ZM207.123 39.5818H222.742V44.6561H207.123V39.5818Z" fill="white"/>
<path d="M242.557 23.0407C245.134 22.9766 247.687 23.5654 249.991 24.7554C252.044 25.8461 253.75 27.5198 254.906 29.5779C256.114 31.8015 256.72 34.3182 256.661 36.8652C256.718 39.3898 256.112 41.8835 254.906 44.0828C253.747 46.1391 252.042 47.8121 249.991 48.9053C247.687 50.0953 245.134 50.6842 242.557 50.62H232.144V23.0407H242.557ZM242.255 45.5457C244.924 45.5457 246.994 44.7723 248.466 43.2255C249.929 41.6823 250.663 39.5658 250.663 36.892C250.663 34.2182 249.929 32.0695 248.466 30.4995C247.003 28.9295 244.926 28.1579 242.255 28.1579H238.012V45.5457H242.255Z" fill="white"/>
<path d="M279.636 28.1311H266.1V34.2289H276.226V39.0513H266.105V45.5456H279.641V50.6253H260.222V23.0407H279.641L279.636 28.1311Z" fill="white"/>
<path d="M288.081 42.4914C288.203 43.1847 288.493 43.8352 288.924 44.3829C289.342 44.8888 289.88 45.2747 290.486 45.5028C291.183 45.7617 291.921 45.8888 292.662 45.8778C293.754 45.9573 294.839 45.6366 295.723 44.9723C296.051 44.7042 296.316 44.3626 296.496 43.9736C296.677 43.5845 296.768 43.1582 296.765 42.7272C296.79 42.0688 296.564 41.4265 296.135 40.9375C295.625 40.4216 295.012 40.0266 294.339 39.7801C293.558 39.4657 292.671 39.1496 291.678 38.8317C290.663 38.5477 289.643 38.2101 288.622 37.8297C287.633 37.4663 286.69 36.9843 285.811 36.3936C284.9 35.7997 284.163 34.9629 283.678 33.9721C283.193 32.9814 282.979 31.8739 283.057 30.7674C283.012 29.2196 283.448 27.6975 284.301 26.4218C285.16 25.2021 286.339 24.2597 287.701 23.7052C290.73 22.5464 294.052 22.4784 297.124 23.5123C298.358 23.9479 299.473 24.6831 300.373 25.6556C301.26 26.6548 301.89 27.867 302.205 29.1813L296.78 30.3977C296.678 29.8404 296.411 29.3293 296.015 28.9349C295.61 28.5229 295.119 28.2129 294.578 28.0293C294.024 27.8339 293.445 27.722 292.86 27.6971C292.2 27.687 291.544 27.8071 290.928 28.0507C290.39 28.2594 289.915 28.6128 289.554 29.0742C289.212 29.5068 289.028 30.049 289.033 30.6067C289.019 30.9023 289.064 31.1977 289.167 31.4744C289.269 31.751 289.425 32.0029 289.627 32.2141C290.094 32.6717 290.647 33.0271 291.251 33.259C291.938 33.5484 292.688 33.8324 293.506 34.1217C294.547 34.4646 295.588 34.829 296.697 35.2255C297.759 35.5995 298.773 36.1052 299.717 36.7312C300.621 37.3329 301.379 38.1393 301.935 39.0889C302.528 40.1726 302.82 41.4036 302.778 42.6468C302.799 44.113 302.428 45.5569 301.705 46.8209C300.933 48.107 299.81 49.1316 298.478 49.768C296.767 50.5603 294.902 50.938 293.027 50.8718C291.349 50.8992 289.679 50.6198 288.096 50.0466C286.73 49.5533 285.498 48.7301 284.504 47.6461C283.551 46.5754 282.903 45.2556 282.63 43.831L288.081 42.4914Z" fill="white"/>
<path d="M135.417 70.2635H141.305V97.8053H135.417V70.2635Z" fill="white"/>
<path d="M168.711 70.2635V97.8053H162.75L151.895 79.9031V97.8053H146.006V70.2635H151.968L162.791 88.246V70.2635H168.711Z" fill="white"/>
<path d="M172.23 70.2635H194.706V75.3379H186.407V97.8053H180.524V75.3379H172.23V70.2635Z" fill="white"/>
<path d="M217.676 75.3379H204.14V81.4464H214.266V86.2688H204.145V92.7631H217.681V97.8374H198.262V70.2957H217.681L217.676 75.3379Z" fill="white"/>
<path d="M227.5 70.2635V92.7309H239.272V97.8053H221.623V70.2635H227.5Z" fill="white"/>
<path d="M242.448 70.2635H248.331V97.8053H242.448V70.2635Z" fill="white"/>
<path d="M272.259 79.1584C271.628 77.8834 270.651 76.8242 269.447 76.1095C268.282 75.4582 266.973 75.1261 265.647 75.145C264.233 75.126 262.845 75.5279 261.648 76.3024C260.462 77.0829 259.5 78.1764 258.863 79.4691C258.169 80.8834 257.821 82.4504 257.848 84.0344C257.809 85.6482 258.15 87.2476 258.842 88.6962C259.469 89.9822 260.436 91.0595 261.633 91.804C262.904 92.5727 264.36 92.9606 265.834 92.9239C266.777 92.932 267.713 92.7499 268.588 92.388C269.419 92.0394 270.183 91.5403 270.843 90.9145C271.503 90.29 272.07 89.5676 272.524 88.7712V87.0404H265.647V82.218H278.069V89.8589C277.419 91.3564 276.513 92.7213 275.393 93.8884C274.177 95.1661 272.738 96.1952 271.15 96.9212C269.364 97.712 267.434 98.0993 265.49 98.0571C263.621 98.0816 261.765 97.7341 260.024 97.0337C258.407 96.3784 256.938 95.3881 255.708 94.1241C254.474 92.8506 253.505 91.332 252.86 89.6607C251.506 86.0263 251.506 82.005 252.86 78.3707C253.502 76.7011 254.463 75.1814 255.687 73.9019C256.909 72.6354 258.373 71.6445 259.987 70.9923C261.729 70.2945 263.585 69.9471 265.454 69.9689C267.243 69.9555 269.02 70.2619 270.707 70.8744C272.295 71.4436 273.757 72.3325 275.008 73.4893C276.228 74.6254 277.161 76.0508 277.725 77.642L272.259 79.1584Z" fill="white"/>
<path d="M301.279 75.3379H287.742V81.4464H297.874V86.2688H287.742V92.7631H301.279V97.8374H281.854V70.2957H301.279V75.3379Z" fill="white"/>
<path d="M327.909 70.2635V97.8053H321.948L311.092 79.9031V97.8053H305.204V70.2635H311.171L321.984 88.246V70.2635H327.909Z" fill="white"/>
<path d="M331.428 70.2635H353.904V75.3379H345.61V97.8053H339.722V75.3379H331.428V70.2635Z" fill="white"/>
<path d="M376.874 75.3379H363.337V81.4464H373.469V86.2688H363.343V92.7631H376.879V97.8374H357.454V70.2957H376.874V75.3379Z" fill="white"/>
<path d="M385.324 89.6981C385.444 90.391 385.733 91.0415 386.162 91.5896C386.581 92.0944 387.118 92.4801 387.724 92.7095C388.423 92.9685 389.162 93.0956 389.905 93.0846C390.996 93.1642 392.079 92.8433 392.961 92.179C393.289 91.9109 393.553 91.5693 393.734 91.1803C393.914 90.7912 394.006 90.365 394.002 89.9339C394.03 89.2752 393.803 88.6321 393.372 88.1442C392.863 87.6283 392.25 87.2333 391.576 86.9868C390.802 86.6689 389.917 86.3527 388.921 86.0384C387.88 85.7544 386.88 85.4168 385.86 85.0364C384.873 84.6719 383.931 84.19 383.054 83.6004C382.211 83.0369 381.51 82.2768 381.008 81.382C380.466 80.3364 380.215 79.157 380.284 77.9741C380.238 76.4269 380.672 74.9047 381.523 73.6285C382.384 72.4091 383.565 71.4684 384.928 70.9172C387.954 69.7533 391.276 69.6834 394.346 70.719C395.58 71.155 396.694 71.8901 397.595 72.8623C398.486 73.8578 399.118 75.0687 399.433 76.3827L394.002 77.599C393.91 77.0398 393.65 76.5244 393.258 76.1255C392.854 75.7147 392.365 75.4048 391.826 75.22C391.27 75.0246 390.69 74.9127 390.103 74.8877C389.445 74.8775 388.791 74.9976 388.177 75.2414C387.637 75.4518 387.161 75.8048 386.797 76.2648C386.455 76.6975 386.271 77.2396 386.276 77.7973C386.262 78.0929 386.307 78.3883 386.41 78.665C386.512 78.9417 386.668 79.1935 386.87 79.4048C387.337 79.8696 387.889 80.234 388.494 80.4765C389.181 80.7658 389.931 81.0552 390.748 81.3391C391.79 81.6964 392.854 82.0643 393.94 82.443C394.997 82.8231 396.005 83.3322 396.944 83.9594C397.847 84.5611 398.604 85.3676 399.157 86.317C399.751 87.4024 400.042 88.6353 400 89.8803C400.021 91.3448 399.65 92.787 398.928 94.0491C398.156 95.3364 397.033 96.3614 395.7 96.9961C393.988 97.7763 392.124 98.1393 390.254 98.0571C388.576 98.085 386.906 97.8056 385.324 97.2319C383.957 96.7386 382.725 95.9154 381.731 94.8314C380.776 93.7621 380.127 92.4417 379.857 91.0163L385.324 89.6981Z" fill="white"/>
<g opacity="0.7">
<path d="M134.105 119.882C134.09 118.694 134.288 117.513 134.688 116.399C135.052 115.391 135.614 114.471 136.34 113.697C137.066 112.924 137.939 112.313 138.905 111.903C139.909 111.478 140.985 111.265 142.07 111.276C143.658 111.231 145.224 111.661 146.579 112.514C147.837 113.346 148.828 114.543 149.427 115.954L148.255 116.409C147.931 115.619 147.442 114.911 146.824 114.336C146.205 113.769 145.485 113.33 144.705 113.044C143.858 112.742 142.967 112.591 142.07 112.6C140.91 112.584 139.766 112.883 138.754 113.468C137.755 114.05 136.942 114.917 136.411 115.965C135.848 117.185 135.556 118.52 135.556 119.871C135.556 121.222 135.848 122.556 136.411 123.777C136.946 124.824 137.758 125.694 138.754 126.285C139.764 126.875 140.909 127.178 142.07 127.163C142.984 127.19 143.895 127.035 144.752 126.708C145.562 126.393 146.299 125.907 146.917 125.283C147.551 124.645 148.053 123.884 148.396 123.043L149.567 123.477C149 124.99 147.993 126.287 146.683 127.19C145.306 128.087 143.7 128.54 142.07 128.492C140.985 128.503 139.909 128.29 138.905 127.865C137.949 127.455 137.084 126.848 136.364 126.081C135.631 125.295 135.061 124.363 134.688 123.343C134.289 122.236 134.092 121.062 134.105 119.882Z" fill="white"/>
<path d="M163.552 112.723H154.415V119.062H161.282V120.342H154.415V127.046H163.552V128.321H152.988V111.453H163.552V112.723Z" fill="white"/>
<path d="M172.683 111.453C173.76 111.412 174.831 111.636 175.807 112.107C176.563 112.492 177.188 113.105 177.598 113.864C177.997 114.635 178.199 115.498 178.186 116.372C178.192 117.03 178.081 117.684 177.858 118.301C177.642 118.892 177.296 119.423 176.848 119.855C176.358 120.331 175.776 120.696 175.141 120.926C174.356 121.2 173.532 121.33 172.704 121.312H168.628V128.353H167.196V111.453H172.683ZM176.76 116.372C176.783 115.888 176.713 115.404 176.552 114.948C176.391 114.493 176.143 114.075 175.823 113.719C175.198 113.059 174.157 112.73 172.699 112.734H168.669V119.989H172.746C173.535 120.02 174.321 119.865 175.042 119.533C175.6 119.261 176.06 118.813 176.354 118.253C176.634 117.665 176.768 117.015 176.744 116.361L176.76 116.372ZM173.922 120.739L178.493 128.332H176.848L172.35 120.739H173.922Z" fill="white"/>
<path d="M192.134 112.723H182.997V119.062H189.864V120.342H182.997V127.046H192.134V128.321H181.571V111.453H192.134V112.723Z" fill="white"/>
<path d="M201.953 111.453H203.4V124.136C203.41 124.909 203.231 125.671 202.88 126.354C202.545 127.005 202.042 127.548 201.427 127.924C200.752 128.324 199.983 128.524 199.204 128.503C198.227 128.547 197.266 128.23 196.497 127.608C195.777 126.973 195.285 126.107 195.102 125.149L196.346 124.693C196.447 125.141 196.612 125.57 196.835 125.969C197.051 126.351 197.362 126.667 197.736 126.885C198.189 127.126 198.695 127.242 199.204 127.222C199.779 127.252 200.348 127.082 200.818 126.74C201.213 126.433 201.518 126.02 201.698 125.545C201.872 125.097 201.964 124.619 201.969 124.136L201.953 111.453Z" fill="white"/>
<path d="M217.978 112.723H208.841V119.062H215.703V120.342H208.841V127.046H217.978V128.321H207.409V111.453H217.978V112.723Z" fill="white"/>
<path d="M221.622 111.453H223.049V128.332H221.622V111.453Z" fill="white"/>
<path d="M232.639 111.453C233.726 111.408 234.808 111.632 235.794 112.107C236.55 112.492 237.175 113.105 237.585 113.864C237.982 114.636 238.183 115.499 238.168 116.372C238.174 117.03 238.062 117.684 237.84 118.301C237.625 118.891 237.282 119.423 236.835 119.855C236.344 120.33 235.763 120.695 235.127 120.926C234.343 121.199 233.519 121.33 232.691 121.312H228.614V128.353H227.183V111.453H232.639ZM236.715 116.372C236.739 115.888 236.668 115.404 236.507 114.948C236.346 114.493 236.098 114.075 235.778 113.719C235.153 113.059 234.112 112.73 232.654 112.734H228.63V119.989H232.706C233.494 120.021 234.278 119.865 234.997 119.533C235.558 119.263 236.02 118.814 236.314 118.253C236.6 117.666 236.739 117.016 236.721 116.361L236.715 116.372ZM233.883 120.739L238.449 128.332H236.835L232.337 120.739H233.883Z" fill="white"/>
<path d="M247.539 112.723H246.769L241.146 128.321H239.693L245.785 111.442H248.502L254.568 128.321H253.141L247.539 112.723ZM242.385 122.368H251.944V123.648H242.385V122.368Z" fill="white"/>
<path d="M257.285 124.27C257.413 124.757 257.628 125.215 257.921 125.62C258.266 126.099 258.72 126.483 259.243 126.74C259.945 127.068 260.712 127.222 261.482 127.19C262.78 127.19 263.74 126.885 264.361 126.274C264.664 125.986 264.904 125.635 265.066 125.244C265.227 124.853 265.306 124.432 265.298 124.007C265.325 123.391 265.141 122.784 264.777 122.293C264.391 121.815 263.903 121.435 263.351 121.184C262.694 120.874 262.015 120.616 261.32 120.412C260.68 120.235 260.06 120.037 259.462 119.823C258.89 119.619 258.343 119.348 257.832 119.013C257.356 118.702 256.961 118.275 256.682 117.77C256.382 117.189 256.237 116.536 256.26 115.879C256.23 115.036 256.445 114.203 256.877 113.486C257.309 112.769 257.939 112.201 258.686 111.855C259.541 111.451 260.474 111.253 261.414 111.276C262.229 111.257 263.04 111.399 263.804 111.694C264.435 111.949 265.004 112.344 265.47 112.851C265.89 113.312 266.21 113.86 266.407 114.459L265.163 114.941C265.014 114.527 264.787 114.146 264.496 113.821C264.145 113.417 263.714 113.096 263.231 112.878C262.643 112.618 262.007 112.492 261.367 112.508C260.733 112.502 260.104 112.628 259.519 112.878C258.984 113.104 258.518 113.474 258.171 113.95C257.823 114.443 257.64 115.039 257.65 115.648C257.615 116.27 257.821 116.881 258.223 117.347C258.642 117.785 259.151 118.121 259.712 118.333C260.331 118.585 261.013 118.821 261.763 119.046C262.403 119.255 263.023 119.48 263.627 119.721C264.194 119.945 264.73 120.246 265.22 120.616C265.676 120.964 266.052 121.412 266.318 121.928C266.61 122.522 266.751 123.182 266.73 123.847C266.736 124.645 266.546 125.432 266.178 126.135C265.792 126.864 265.2 127.456 264.481 127.833C263.555 128.298 262.532 128.519 261.503 128.476C260.578 128.5 259.659 128.33 258.8 127.978C258.095 127.689 257.464 127.236 256.957 126.654C256.5 126.117 256.171 125.477 256 124.784L257.285 124.27Z" fill="white"/>
<path d="M273.571 109.031H274.997L269.354 130.743H267.958L273.571 109.031Z" fill="white"/>
<path d="M282.536 111.453C283.613 111.412 284.684 111.636 285.66 112.107C286.416 112.492 287.04 113.105 287.45 113.864C287.849 114.635 288.052 115.498 288.039 116.372C288.044 117.03 287.933 117.684 287.711 118.301C287.494 118.892 287.149 119.423 286.701 119.855C286.211 120.331 285.629 120.696 284.993 120.926C284.209 121.2 283.384 121.33 282.557 121.312H278.48V128.353H277.048V111.453H282.536ZM286.612 116.372C286.636 115.888 286.565 115.404 286.404 114.948C286.243 114.493 285.995 114.075 285.675 113.719C285.05 113.059 284.009 112.73 282.551 112.734H278.522V119.989H282.598C283.387 120.02 284.173 119.865 284.894 119.533C285.453 119.261 285.913 118.813 286.206 118.253C286.486 117.665 286.62 117.015 286.597 116.361L286.612 116.372ZM283.775 120.739L288.346 128.332H286.701L282.203 120.739H283.775Z" fill="white"/>
<path d="M298.498 128.492C297.398 128.504 296.306 128.291 295.286 127.865C294.311 127.459 293.428 126.849 292.692 126.074C291.957 125.3 291.384 124.377 291.012 123.364C290.213 121.115 290.213 118.648 291.012 116.399C291.384 115.386 291.956 114.464 292.691 113.69C293.427 112.916 294.31 112.308 295.286 111.903C296.306 111.478 297.398 111.265 298.498 111.276C299.587 111.266 300.666 111.479 301.674 111.903C302.632 112.309 303.5 112.91 304.225 113.671C304.964 114.454 305.541 115.381 305.922 116.399C306.735 118.645 306.735 121.118 305.922 123.364C305.541 124.382 304.964 125.31 304.225 126.092C303.5 126.854 302.632 127.458 301.674 127.865C300.666 128.289 299.587 128.502 298.498 128.492ZM298.498 127.212C299.668 127.23 300.821 126.923 301.836 126.322C302.837 125.718 303.656 124.841 304.204 123.788C304.78 122.569 305.079 121.231 305.079 119.876C305.079 118.521 304.78 117.183 304.204 115.965C303.661 114.908 302.84 114.03 301.836 113.43C300.819 112.838 299.667 112.535 298.498 112.551C297.318 112.534 296.155 112.837 295.125 113.43C294.116 114.028 293.291 114.906 292.745 115.965C292.166 117.182 291.865 118.52 291.865 119.876C291.865 121.232 292.166 122.57 292.745 123.788C293.296 124.842 294.119 125.72 295.125 126.322C296.152 126.923 297.317 127.231 298.498 127.212Z" fill="white"/>
</g>
<g opacity="0.5">
<path d="M142.253 7.15867C142.256 7.62673 142.177 8.09151 142.019 8.5304C141.87 8.95369 141.628 9.33538 141.31 9.64492C140.962 9.97427 140.551 10.2244 140.103 10.379C139.548 10.5635 138.967 10.6522 138.385 10.6416H135.511V15.5927H134.506V3.69184H138.385C139.147 3.65885 139.907 3.81698 140.597 4.15266C141.126 4.42497 141.562 4.85673 141.847 5.39043C142.122 5.93614 142.262 6.54374 142.253 7.15867ZM138.385 9.70922C138.955 9.73244 139.522 9.62252 140.045 9.38773C140.443 9.20175 140.769 8.88507 140.972 8.48753C141.17 8.07459 141.268 7.61884 141.258 7.15867C141.279 6.81409 141.23 6.46892 141.115 6.1445C141.001 5.82008 140.822 5.52331 140.592 5.27254C140.144 4.81709 139.41 4.59204 138.385 4.59204H135.511V9.70922H138.385Z" fill="white"/>
<path d="M148.282 3.69186C149.048 3.6601 149.81 3.81814 150.505 4.15267C151.038 4.42457 151.479 4.85603 151.77 5.39044C152.047 5.93575 152.188 6.54333 152.181 7.15869C152.186 7.62338 152.106 8.08488 151.947 8.5197C151.792 8.92725 151.55 9.29359 151.239 9.59136C150.89 9.92048 150.479 10.1722 150.031 10.3308C149.478 10.5244 148.897 10.6169 148.313 10.6041H145.439V15.5927H144.434V3.69186H148.282ZM151.156 7.15869C151.173 6.81731 151.123 6.47592 151.009 6.15471C150.896 5.8335 150.721 5.539 150.494 5.28864C150.057 4.82782 149.318 4.59206 148.282 4.59206H145.439V9.70924H148.313C148.87 9.73081 149.423 9.62082 149.932 9.38774C150.327 9.19844 150.652 8.88266 150.859 8.48755C151.062 8.07642 151.164 7.62001 151.156 7.15869ZM149.156 10.2397L152.379 15.598H151.239L148.068 10.2397H149.156Z" fill="white"/>
<path d="M159.548 15.7159C158.772 15.7221 158.003 15.571 157.283 15.2712C156.603 14.9834 155.985 14.559 155.466 14.0227C154.943 13.4726 154.536 12.8179 154.269 12.099C153.98 11.3154 153.837 10.4829 153.847 9.64493C153.838 8.80522 153.981 7.97106 154.269 7.18547C154.534 6.47261 154.938 5.82327 155.456 5.27765C155.975 4.73202 156.597 4.30171 157.283 4.01335C158.003 3.71519 158.772 3.56589 159.548 3.57396C160.315 3.56531 161.076 3.7147 161.787 4.01335C162.464 4.30002 163.077 4.72677 163.588 5.26719C164.107 5.81811 164.515 6.47031 164.786 7.18547C165.08 7.96967 165.226 8.80432 165.218 9.64493C165.227 10.4838 165.08 11.3168 164.786 12.099C164.515 12.8158 164.108 13.4698 163.588 14.0227C163.076 14.5598 162.463 14.9845 161.787 15.2712C161.077 15.5715 160.316 15.7227 159.548 15.7159ZM159.548 14.8103C160.373 14.8225 161.186 14.6059 161.901 14.1834C162.609 13.7604 163.188 13.1424 163.573 12.3991C164.003 11.5501 164.216 10.6022 164.192 9.64493C164.215 8.68427 164.002 7.73313 163.573 6.88004C163.191 6.13448 162.611 5.51574 161.901 5.09572C161.184 4.67729 160.372 4.46276 159.548 4.47416C158.716 4.46287 157.895 4.67724 157.169 5.09572C156.462 5.51861 155.885 6.13675 155.503 6.88004C155.069 7.73215 154.853 8.68334 154.873 9.64493C154.852 10.6032 155.069 11.5511 155.503 12.3991C155.891 13.1416 156.471 13.7592 157.179 14.1834C157.901 14.6046 158.718 14.8209 159.548 14.8103Z" fill="white"/>
<path d="M171.741 3.69183H172.751V12.6349C172.757 13.1794 172.632 13.7169 172.387 14.1995C172.147 14.6605 171.786 15.043 171.345 15.3033C170.872 15.5858 170.331 15.7285 169.784 15.7159C169.094 15.7464 168.416 15.5221 167.873 15.0836C167.366 14.6344 167.019 14.0231 166.889 13.3475L167.764 13.026C167.835 13.3425 167.953 13.646 168.112 13.9262C168.265 14.1964 168.484 14.4202 168.748 14.5746C169.068 14.7462 169.428 14.8276 169.789 14.8103C170.195 14.831 170.596 14.7123 170.929 14.4728C171.206 14.2559 171.421 13.9649 171.549 13.6315C171.67 13.314 171.734 12.9761 171.736 12.6349L171.741 3.69183Z" fill="white"/>
<path d="M183.044 4.59203H176.599V9.06622H181.44V9.96642H176.599V14.6924H183.044V15.5926H175.589V3.69183H183.044V4.59203Z" fill="white"/>
<path d="M184.908 3.69183H193.384V4.59203H189.651V15.5926H188.656V4.59203H184.908V3.69183Z" fill="white"/>
<path d="M200.173 15.7159C199.397 15.7221 198.627 15.571 197.908 15.2712C197.235 14.9809 196.625 14.5566 196.112 14.0227C195.589 13.4726 195.181 12.8179 194.914 12.099C194.626 11.3154 194.483 10.4829 194.493 9.64493C194.483 8.80522 194.626 7.97106 194.914 7.18547C195.179 6.47261 195.583 5.82327 196.102 5.27765C196.62 4.73202 197.242 4.30171 197.929 4.01335C198.648 3.71519 199.418 3.56589 200.194 3.57396C200.961 3.56531 201.722 3.7147 202.432 4.01335C203.11 4.30002 203.723 4.72677 204.234 5.26719C204.753 5.81811 205.16 6.47031 205.431 7.18547C205.725 7.96967 205.872 8.80432 205.863 9.64493C205.872 10.4838 205.726 11.3168 205.431 12.099C205.16 12.8158 204.753 13.4698 204.234 14.0227C203.721 14.5598 203.108 14.9845 202.432 15.2712C201.716 15.5743 200.947 15.7256 200.173 15.7159ZM200.173 14.8103C200.998 14.8225 201.81 14.6059 202.526 14.1834C203.234 13.7604 203.812 13.1424 204.197 12.3991C204.628 11.5501 204.841 10.6022 204.817 9.64493C204.84 8.68427 204.627 7.73313 204.197 6.88004C203.815 6.13448 203.236 5.51574 202.526 5.09572C201.809 4.67729 200.997 4.46276 200.173 4.47416C199.34 4.46287 198.52 4.67724 197.793 5.09572C197.081 5.51624 196.499 6.13459 196.112 6.88004C195.684 7.73362 195.472 8.68473 195.497 9.64493C195.472 10.6018 195.683 11.5496 196.112 12.3991C196.5 13.1416 197.08 13.7592 197.788 14.1834C198.515 14.6073 199.338 14.8238 200.173 14.8103Z" fill="white"/>
</g>
<path opacity="0.75" d="M57.9371 94.3438C50.1899 94.3315 42.6371 96.8389 36.357 101.508C35.8917 101.839 35.3212 101.976 34.7613 101.891C34.2015 101.805 33.6942 101.504 33.3426 101.047L25.049 90.4858C24.8585 90.2395 24.7185 89.9559 24.6374 89.6523C24.5563 89.3487 24.5358 89.0314 24.5772 88.7194C24.6185 88.4074 24.7209 88.1073 24.878 87.8372C25.0352 87.567 25.2439 87.3325 25.4915 87.1476C34.8846 80.0025 46.2569 76.1466 57.9371 76.1466C69.6173 76.1466 80.9895 80.0025 90.3826 87.1476C90.6302 87.3325 90.8389 87.567 90.9961 87.8372C91.1532 88.1073 91.2556 88.4074 91.2969 88.7194C91.3383 89.0314 91.3178 89.3487 91.2367 89.6523C91.1556 89.9559 91.0156 90.2395 90.8251 90.4858L82.5263 101.052C82.1756 101.509 81.6688 101.81 81.1095 101.895C80.5502 101.979 79.9806 101.841 79.5171 101.508C73.2367 96.8396 65.6841 94.3323 57.9371 94.3438Z" fill="white"/>
<path opacity="0.5" d="M69.8178 117.235L59.7072 130.143C59.4963 130.411 59.2298 130.628 58.9272 130.777C58.6245 130.925 58.2933 131.003 57.9579 131.003C57.6224 131.003 57.2913 130.925 56.9886 130.777C56.6859 130.628 56.4194 130.411 56.2086 130.143L46.0511 117.235C45.8528 116.983 45.7081 116.691 45.6264 116.377C45.5448 116.064 45.5279 115.737 45.577 115.417C45.6261 115.096 45.74 114.79 45.9114 114.518C46.0827 114.246 46.3077 114.014 46.5717 113.837C49.9755 111.622 53.9202 110.446 57.9475 110.446C61.9748 110.446 65.9194 111.622 69.3232 113.837C69.5859 114.016 69.8092 114.249 69.9785 114.522C70.1478 114.795 70.2595 115.102 70.3061 115.422C70.3528 115.743 70.3334 116.07 70.2492 116.382C70.1651 116.694 70.0181 116.985 69.8178 117.235Z" fill="white"/>
<path d="M111.01 61.0419C107.078 57.9403 102.898 55.187 98.5148 52.8115L97.359 52.1953V40.9429L90.7626 35.9007L84.1767 40.9697V46.6495C83.6561 46.4834 83.1354 46.3172 82.6148 46.1619V40.1873L86.707 37.0527V19.9758L66.5482 14.3656V27.1559H70.0052V43.3702L68.4433 43.1612V28.7634H48.4929V43.038C47.9722 43.0969 47.4516 43.1558 46.931 43.2255V27.1506H56.2554V0L32.3065 6.6711V30.671H38.3146V44.8008C37.794 44.9259 37.2733 45.0545 36.7527 45.1866V32.2785H21.0818V50.904L20.1863 51.3433C14.7686 54.0233 9.63401 57.2716 4.86424 61.0365C4.63224 61.2267 4.43916 61.4622 4.29616 61.7296C4.15316 61.997 4.06308 62.2909 4.03113 62.5944C3.99918 62.8978 4.02598 63.2048 4.11 63.4975C4.19402 63.7902 4.33359 64.0629 4.52063 64.2997L13.2359 75.445C13.608 75.9121 14.1421 76.2118 14.7251 76.2808C15.3081 76.3498 15.8943 76.1827 16.3597 75.8148C28.3254 66.4903 42.9232 61.4442 57.9318 61.4442C72.9405 61.4442 87.5383 66.4903 99.504 75.8148C99.9684 76.1853 100.555 76.3541 101.139 76.285C101.723 76.216 102.257 75.9144 102.628 75.445L111.364 64.3265C111.554 64.0884 111.695 63.8137 111.78 63.5185C111.865 63.2233 111.892 62.9135 111.859 62.6075C111.826 62.3014 111.734 62.0053 111.588 61.7364C111.442 61.4675 111.246 61.2314 111.01 61.0419Z" fill="white"/>
</g>
</g>
<defs>
<filter id="filter0_d_35_500" x="0" y="0" width="404" height="139" filterUnits="userSpaceOnUse" color-interpolation-filters="sRGB">
<feFlood flood-opacity="0" result="BackgroundImageFix"/>
<feColorMatrix in="SourceAlpha" type="matrix" values="0 0 0 0 0 0 0 0 0 0 0 0 0 0 0 0 0 0 127 0" result="hardAlpha"/>
<feOffset dy="4"/>
<feGaussianBlur stdDeviation="2"/>
<feComposite in2="hardAlpha" operator="out"/>
<feColorMatrix type="matrix" values="0 0 0 0 0 0 0 0 0 0 0 0 0 0 0 0 0 0 0.25 0"/>
<feBlend mode="normal" in2="BackgroundImageFix" result="effect1_dropShadow_35_500"/>
<feBlend mode="normal" in="SourceGraphic" in2="effect1_dropShadow_35_500" result="shape"/>
</filter>
<clipPath id="clip0_35_500">
<rect width="396" height="131" fill="white" transform="translate(4)"/>
</clipPath>
</defs>
</svg>
